<svg width="60" height="60" viewBox="0 0 60 60" fill="none" xmlns="http://www.w3.org/2000/svg">
<rect x="2.5" y="2.5" width="55" height="55" rx="2.5" fill="white" stroke="#68CE72" stroke-width="5"/>
<path d="M33.2917 45.9583C32.7917 46.4583 32.1875 46.7083 31.4792 46.7083C30.7708 46.7083 30.1667 46.4583 29.6667 45.9583L14.0417 30.3333C13.7639 30.0555 13.5764 29.7639 13.4792 29.4583C13.3819 29.1528 13.3333 28.8333 13.3333 28.5V15.8333C13.3333 15.1111 13.5694 14.5139 14.0417 14.0416C14.5139 13.5694 15.1111 13.3333 15.8333 13.3333H28.5C28.8333 13.3333 29.1667 13.3819 29.5 13.4791C29.8333 13.5764 30.1389 13.7639 30.4167 14.0416L45.9583 29.5833C46.4861 30.1111 46.75 30.7291 46.75 31.4375C46.75 32.1458 46.4861 32.7639 45.9583 33.2916L33.2917 45.9583ZM31.5833 44.25L44.25 31.5833L28.5 15.8333H15.8333V28.5L31.5833 44.25ZM20.2083 22.3333C20.7917 22.3333 21.2986 22.118 21.7292 21.6875C22.1597 21.2569 22.375 20.75 22.375 20.1666C22.375 19.5833 22.1597 19.0764 21.7292 18.6458C21.2986 18.2153 20.7917 18 20.2083 18C19.625 18 19.1181 18.2153 18.6875 18.6458C18.2569 19.0764 18.0417 19.5833 18.0417 20.1666C18.0417 20.75 18.2569 21.2569 18.6875 21.6875C19.1181 22.118 19.625 22.3333 20.2083 22.3333Z" fill="#68CE72"/>
</svg>
