<svg width="25" height="25" viewBox="0 0 25 25" fill="none" xmlns="http://www.w3.org/2000/svg">
<path d="M14.5573 22.4739C14.2448 22.7864 13.8672 22.9427 13.4245 22.9427C12.9818 22.9427 12.6042 22.7864 12.2917 22.4739L2.52604 12.7083C2.35243 12.5347 2.23524 12.3524 2.17447 12.1614C2.11371 11.9705 2.08333 11.7708 2.08333 11.5625V3.64581C2.08333 3.19442 2.2309 2.82116 2.52604 2.52602C2.82118 2.23088 3.19444 2.08331 3.64583 2.08331H11.5625C11.7708 2.08331 11.9792 2.1137 12.1875 2.17446C12.3958 2.23522 12.5868 2.35241 12.7604 2.52602L22.474 12.2396C22.8038 12.5694 22.9687 12.9557 22.9687 13.3984C22.9687 13.8411 22.8038 14.2274 22.474 14.5573L14.5573 22.4739ZM13.4896 21.4062L21.4062 13.4896L11.5625 3.64581H3.64583V11.5625L13.4896 21.4062ZM6.3802 7.70831C6.74479 7.70831 7.06163 7.57376 7.33072 7.30467C7.59982 7.03557 7.73437 6.71873 7.73437 6.35415C7.73437 5.98956 7.59982 5.67272 7.33072 5.40363C7.06163 5.13453 6.74479 4.99998 6.3802 4.99998C6.01562 4.99998 5.69878 5.13453 5.42968 5.40363C5.16059 5.67272 5.02604 5.98956 5.02604 6.35415C5.02604 6.71873 5.16059 7.03557 5.42968 7.30467C5.69878 7.57376 6.01562 7.70831 6.3802 7.70831Z" fill="#68CE72"/>
</svg>
