<svg width="60" height="60" viewBox="0 0 60 60" fill="none" xmlns="http://www.w3.org/2000/svg">
<rect x="2.5" y="2.5" width="55" height="55" rx="2.5" fill="white" stroke="#68CE72" stroke-width="5"/>
<path d="M14.0625 46.875C13.3125 46.875 12.6563 46.5937 12.0938 46.0312C11.5313 45.4687 11.25 44.8125 11.25 44.0625V21.5625C11.25 20.8125 11.5313 20.1562 12.0938 19.5937C12.6563 19.0312 13.3125 18.75 14.0625 18.75H22.5V14.0625C22.5 13.3125 22.7812 12.6563 23.3437 12.0938C23.9062 11.5313 24.5625 11.25 25.3125 11.25H34.6875C35.4375 11.25 36.0938 11.5313 36.6563 12.0938C37.2188 12.6563 37.5 13.3125 37.5 14.0625V18.75H45.9375C46.6875 18.75 47.3437 19.0312 47.9062 19.5937C48.4687 20.1562 48.75 20.8125 48.75 21.5625V44.0625C48.75 44.8125 48.4687 45.4687 47.9062 46.0312C47.3437 46.5937 46.6875 46.875 45.9375 46.875H14.0625ZM14.0625 44.0625H45.9375V21.5625H14.0625V44.0625ZM25.3125 18.75H34.6875V14.0625H25.3125V18.75Z" fill="#68CE72"/>
</svg>
