<svg width="30" height="30" viewBox="0 0 30 30" fill="none" xmlns="http://www.w3.org/2000/svg">
<path d="M14.0937 26.25V23.625C12.9062 23.4167 11.9323 22.9635 11.1719 22.2656C10.4115 21.5677 9.86458 20.6875 9.53125 19.625L11.2812 18.9062C11.6354 19.9063 12.1458 20.651 12.8125 21.1406C13.4792 21.6302 14.2813 21.875 15.2188 21.875C16.2188 21.875 17.0417 21.625 17.6875 21.125C18.3333 20.625 18.6563 19.9375 18.6563 19.0625C18.6563 18.1458 18.3698 17.4375 17.7969 16.9375C17.224 16.4375 16.1458 15.9271 14.5625 15.4062C13.0625 14.9271 11.9427 14.2917 11.2031 13.5C10.4635 12.7083 10.0937 11.7188 10.0937 10.5313C10.0937 9.38542 10.4635 8.42708 11.2031 7.65625C11.9427 6.88542 12.9062 6.44792 14.0937 6.34375V3.75H15.9687V6.34375C16.9062 6.44792 17.7135 6.75521 18.3906 7.26562C19.0677 7.77604 19.5833 8.42708 19.9375 9.21875L18.1875 9.96875C17.8958 9.30208 17.5052 8.81771 17.0156 8.51562C16.526 8.21354 15.8854 8.0625 15.0937 8.0625C14.1354 8.0625 13.375 8.28125 12.8125 8.71875C12.25 9.15625 11.9687 9.75 11.9687 10.5C11.9687 11.2917 12.2812 11.9323 12.9062 12.4219C13.5312 12.9115 14.6875 13.4167 16.375 13.9375C17.7917 14.375 18.8385 15.0052 19.5156 15.8281C20.1927 16.651 20.5312 17.6875 20.5312 18.9375C20.5312 20.25 20.1458 21.3073 19.375 22.1094C18.6042 22.9115 17.4687 23.4271 15.9687 23.6562V26.25H14.0937Z" fill="#D87869"/>
</svg>
