<svg width="30" height="30" viewBox="0 0 30 30" fill="none" xmlns="http://www.w3.org/2000/svg">
<path d="M11.25 3.125V1.25H18.75V3.125H11.25ZM14.0625 17.0938H15.9375V9.90625H14.0625V17.0938ZM15 27.4688C13.4583 27.4688 12.0052 27.1719 10.6406 26.5781C9.27604 25.9844 8.08333 25.1771 7.0625 24.1563C6.04167 23.1354 5.23438 21.9427 4.64063 20.5781C4.04688 19.2135 3.75 17.7604 3.75 16.2188C3.75 14.6771 4.04688 13.224 4.64063 11.8594C5.23438 10.4948 6.04167 9.30208 7.0625 8.28125C8.08333 7.26042 9.27604 6.45312 10.6406 5.85938C12.0052 5.26563 13.4583 4.96875 15 4.96875C16.3958 4.96875 17.7083 5.20312 18.9375 5.67187C20.1667 6.14062 21.2604 6.79167 22.2187 7.625L23.8125 6.03125L25.125 7.34375L23.5313 8.9375C24.2813 9.77083 24.9219 10.7812 25.4531 11.9687C25.9844 13.1562 26.25 14.5729 26.25 16.2188C26.25 17.7604 25.9531 19.2135 25.3594 20.5781C24.7656 21.9427 23.9583 23.1354 22.9375 24.1563C21.9167 25.1771 20.724 25.9844 19.3594 26.5781C17.9948 27.1719 16.5417 27.4688 15 27.4688ZM15 25.5938C17.6042 25.5938 19.8177 24.6823 21.6406 22.8594C23.4635 21.0365 24.375 18.8229 24.375 16.2188C24.375 13.6146 23.4635 11.401 21.6406 9.57812C19.8177 7.75521 17.6042 6.84375 15 6.84375C12.3958 6.84375 10.1823 7.75521 8.35938 9.57812C6.53646 11.401 5.625 13.6146 5.625 16.2188C5.625 18.8229 6.53646 21.0365 8.35938 22.8594C10.1823 24.6823 12.3958 25.5938 15 25.5938Z" fill="#D87869"/>
</svg>
