<svg width="60" height="60" viewBox="0 0 60 60" fill="none" xmlns="http://www.w3.org/2000/svg">
<rect x="2.5" y="2.5" width="55" height="55" rx="2.5" fill="white" stroke="#68CE72" stroke-width="5"/>
<path d="M13.125 46.875V20.8594H20.8594V13.125H39.1406V28.5938H46.875V46.875H32.4844V39.1406H27.5156V46.875H13.125ZM15.9375 44.0625H20.8594V39.1406H15.9375V44.0625ZM15.9375 36.3281H20.8594V31.4062H15.9375V36.3281ZM15.9375 28.5938H20.8594V23.6719H15.9375V28.5938ZM23.6719 36.3281H28.5938V31.4062H23.6719V36.3281ZM23.6719 28.5938H28.5938V23.6719H23.6719V28.5938ZM23.6719 20.8594H28.5938V15.9375H23.6719V20.8594ZM31.4062 36.3281H36.3281V31.4062H31.4062V36.3281ZM31.4062 28.5938H36.3281V23.6719H31.4062V28.5938ZM31.4062 20.8594H36.3281V15.9375H31.4062V20.8594ZM39.1406 44.0625H44.0625V39.1406H39.1406V44.0625ZM39.1406 36.3281H44.0625V31.4062H39.1406V36.3281Z" fill="#68CE72"/>
</svg>
