<svg width="60" height="60" viewBox="0 0 60 60" fill="none" xmlns="http://www.w3.org/2000/svg">
<rect x="2.5" y="2.5" width="55" height="55" rx="2.5" fill="white" stroke="#68CE72" stroke-width="5"/>
<path d="M16.875 45V30H11.25L30 13.125L39.375 21.4219V15.9375H43.125V24.8906L48.75 30H43.125V45H32.3438V33.75H27.6562V45H16.875ZM19.6875 42.1875H24.8438V30.9375H35.1562V42.1875H40.3125V26.2031L30 16.8281L19.6875 26.2031V42.1875ZM26.0156 25.7812H33.9844C33.9844 24.75 33.5859 23.8984 32.7891 23.2266C31.9922 22.5547 31.0625 22.2187 30 22.2187C28.9375 22.2187 28.0078 22.5547 27.2109 23.2266C26.4141 23.8984 26.0156 24.75 26.0156 25.7812Z" fill="#68CE72"/>
</svg>
