<svg width="60" height="60" viewBox="0 0 60 60" fill="none" xmlns="http://www.w3.org/2000/svg">
<rect x="2.5" y="2.5" width="55" height="55" rx="2.5" fill="white" stroke="#68CE72" stroke-width="5"/>
<path d="M15 46.875V24.375L30 13.125L45 24.375V46.875H15ZM17.8125 44.0625H42.1875V25.7812L30 16.6406L17.8125 25.7812V44.0625ZM20.625 41.25H22.5V38.4375H37.5V41.25H39.375V33.75C39.375 32.7187 39.0078 31.8359 38.2734 31.1016C37.5391 30.3672 36.6563 30 35.625 30H29.0625V36.5625H22.5V28.125H20.625V41.25ZM25.7812 35.625C26.4375 35.625 26.9922 35.3984 27.4453 34.9453C27.8984 34.4922 28.125 33.9375 28.125 33.2812C28.125 32.625 27.8984 32.0703 27.4453 31.6172C26.9922 31.1641 26.4375 30.9375 25.7812 30.9375C25.125 30.9375 24.5703 31.1641 24.1172 31.6172C23.6641 32.0703 23.4375 32.625 23.4375 33.2812C23.4375 33.9375 23.6641 34.4922 24.1172 34.9453C24.5703 35.3984 25.125 35.625 25.7812 35.625Z" fill="#68CE72"/>
</svg>
