<svg width="60" height="60" viewBox="0 0 60 60" fill="none" xmlns="http://www.w3.org/2000/svg">
<rect x="2.5" y="2.5" width="55" height="55" rx="2.5" fill="white" stroke="#68CE72" stroke-width="5"/>
<g clip-path="url(#clip0_26_409)">
<path d="M33.125 47.5V45.1563C36.3802 45.1563 39.1471 44.0169 41.4258 41.7383C43.7044 39.4596 44.8438 36.6927 44.8438 33.4375H47.1875C47.1875 35.3906 46.8164 37.2201 46.0742 38.9258C45.332 40.6315 44.3294 42.1159 43.0664 43.3789C41.8034 44.6419 40.319 45.6445 38.6133 46.3867C36.9076 47.1289 35.0781 47.5 33.125 47.5ZM33.125 42.8125V40.4688C34.9219 40.4688 36.543 39.7461 37.9883 38.3008C39.4336 36.8555 40.1563 35.2344 40.1563 33.4375H42.5C42.5 35.9115 41.556 38.0925 39.668 39.9805C37.7799 41.8685 35.599 42.8125 33.125 42.8125ZM19.9219 46.8359C19.6094 46.8359 19.3034 46.7773 19.0039 46.6602C18.7044 46.543 18.4505 46.3802 18.2422 46.1719L11.6016 39.5313C11.3932 39.3229 11.2305 39.069 11.1133 38.7695C10.9961 38.4701 10.9375 38.1641 10.9375 37.8516C10.9375 37.5391 10.9961 37.2396 11.1133 36.9531C11.2305 36.6667 11.3932 36.4193 11.6016 36.2109L17.5 30.3125C17.9427 29.8698 18.4961 29.6484 19.1602 29.6484C19.8242 29.6484 20.3776 29.8698 20.8203 30.3125L23.3203 32.8125L24.7656 31.3672L22.2656 28.8672C21.8229 28.4245 21.6016 27.8776 21.6016 27.2266C21.6016 26.5755 21.8229 26.0286 22.2656 25.5859L25.1953 22.6563C25.638 22.2135 26.1914 21.9922 26.8555 21.9922C27.5195 21.9922 28.0729 22.2135 28.5156 22.6563L31.0156 25.1563L32.4609 23.7109L29.9609 21.2109C29.5182 20.7682 29.2969 20.2148 29.2969 19.5508C29.2969 18.8867 29.5182 18.3333 29.9609 17.8906L35.8594 11.9922C36.0937 11.7578 36.3542 11.582 36.6406 11.4648C36.9271 11.3477 37.2266 11.2891 37.5391 11.2891C37.8516 11.2891 38.151 11.3411 38.4375 11.4453C38.724 11.5495 38.9844 11.7187 39.2188 11.9531L45.8594 18.5938C46.0938 18.8281 46.263 19.0885 46.3672 19.375C46.4714 19.6615 46.5234 19.9609 46.5234 20.2734C46.5234 20.5859 46.4583 20.8919 46.3281 21.1914C46.1979 21.4909 46.0286 21.7448 45.8203 21.9531L39.9219 27.8516C39.3229 28.4505 38.7695 28.75 38.2617 28.75C37.7539 28.75 37.2005 28.4505 36.6016 27.8516L34.1016 25.3516L32.6562 26.7969L35.1562 29.2969C35.599 29.7396 35.8138 30.293 35.8008 30.957C35.7878 31.6211 35.5599 32.1745 35.1172 32.6172L32.2266 35.5078C31.7839 35.9505 31.2305 36.1719 30.5664 36.1719C29.9023 36.1719 29.349 35.9505 28.9062 35.5078L26.4062 33.0078L24.9609 34.4531L27.4609 36.9531C27.9036 37.3958 28.125 37.9492 28.125 38.6133C28.125 39.2773 27.9036 39.8307 27.4609 40.2734L21.5625 46.1719C21.3542 46.3802 21.1068 46.543 20.8203 46.6602C20.5339 46.7773 20.2344 46.8359 19.9219 46.8359ZM19.9219 44.5313L22.0312 42.4219L15.3906 35.7813L13.2812 37.8906L19.9219 44.5313ZM23.7109 40.7422L25.8203 38.6328L19.1797 31.9922L17.0703 34.1016L23.7109 40.7422ZM30.5859 33.8672L33.4766 30.9766L26.8359 24.3359L23.9453 27.2266L30.5859 33.8672ZM38.2812 26.1719L40.3906 24.0625L33.75 17.4219L31.6406 19.5313L38.2812 26.1719ZM42.0703 22.3828L44.1797 20.2734L37.5391 13.6328L35.4297 15.7422L42.0703 22.3828Z" fill="#68CE72"/>
</g>
<defs>
<clipPath id="clip0_26_409">
<rect width="37.5" height="37.5" fill="white" transform="translate(11.25 11.25)"/>
</clipPath>
</defs>
</svg>
