<svg width="12" height="24" viewBox="0 0 12 24" fill="none" xmlns="http://www.w3.org/2000/svg">
<path d="M5.09375 23.25V20.625C3.90625 20.4167 2.93229 19.9635 2.17188 19.2656C1.41146 18.5677 0.864583 17.6875 0.53125 16.625L2.28125 15.9062C2.63542 16.9063 3.14583 17.651 3.8125 18.1406C4.47917 18.6302 5.28125 18.875 6.21875 18.875C7.21875 18.875 8.04167 18.625 8.6875 18.125C9.33333 17.625 9.65625 16.9375 9.65625 16.0625C9.65625 15.1458 9.36979 14.4375 8.79688 13.9375C8.22396 13.4375 7.14583 12.9271 5.5625 12.4062C4.0625 11.9271 2.94271 11.2917 2.20312 10.5C1.46354 9.70833 1.09375 8.71875 1.09375 7.53125C1.09375 6.38542 1.46354 5.42708 2.20312 4.65625C2.94271 3.88542 3.90625 3.44792 5.09375 3.34375V0.75H6.96875V3.34375C7.90625 3.44792 8.71354 3.75521 9.39062 4.26562C10.0677 4.77604 10.5833 5.42708 10.9375 6.21875L9.1875 6.96875C8.89583 6.30208 8.50521 5.81771 8.01563 5.51562C7.52604 5.21354 6.88542 5.0625 6.09375 5.0625C5.13542 5.0625 4.375 5.28125 3.8125 5.71875C3.25 6.15625 2.96875 6.75 2.96875 7.5C2.96875 8.29167 3.28125 8.93229 3.90625 9.42188C4.53125 9.91146 5.6875 10.4167 7.375 10.9375C8.79167 11.375 9.83854 12.0052 10.5156 12.8281C11.1927 13.651 11.5312 14.6875 11.5312 15.9375C11.5312 17.25 11.1458 18.3073 10.375 19.1094C9.60417 19.9115 8.46875 20.4271 6.96875 20.6562V23.25H5.09375Z" fill="#68CE72"/>
</svg>
