<svg width="60" height="60" viewBox="0 0 60 60" fill="none" xmlns="http://www.w3.org/2000/svg">
<rect x="2.5" y="2.5" width="55" height="55" rx="2.5" fill="white" stroke="#ADACE4" stroke-width="5"/>
<path d="M28.6406 43.4531H31.2187V41.0156C33.125 40.7969 34.6094 40.2109 35.6719 39.2578C36.7344 38.3047 37.2656 37.0312 37.2656 35.4375C37.2656 33.8437 36.8125 32.5469 35.9062 31.5469C35 30.5469 33.4687 29.5938 31.3125 28.6875C29.5 27.9375 28.1875 27.2656 27.375 26.6719C26.5625 26.0781 26.1562 25.2812 26.1562 24.2812C26.1562 23.3125 26.5078 22.5469 27.2109 21.9844C27.9141 21.4219 28.875 21.1406 30.0938 21.1406C31.0313 21.1406 31.8438 21.3594 32.5313 21.7969C33.2188 22.2344 33.7969 22.8906 34.2656 23.7656L36.5156 22.6875C35.9844 21.5938 35.2813 20.7344 34.4063 20.1094C33.5313 19.4844 32.5 19.1094 31.3125 18.9844V16.5937H28.7344V18.9844C27.1406 19.2031 25.8828 19.7891 24.9609 20.7422C24.0391 21.6953 23.5781 22.875 23.5781 24.2812C23.5781 25.8125 24.0469 27.0312 24.9844 27.9375C25.9219 28.8437 27.3281 29.6875 29.2031 30.4688C31.2969 31.3438 32.7344 32.1328 33.5156 32.8359C34.2969 33.5391 34.6875 34.4062 34.6875 35.4375C34.6875 36.4375 34.2734 37.2422 33.4453 37.8516C32.6172 38.4609 31.5781 38.7656 30.3281 38.7656C29.1094 38.7656 28.0234 38.4219 27.0703 37.7344C26.1172 37.0469 25.4531 36.1094 25.0781 34.9219L22.6875 35.7188C23.3438 37.1563 24.1484 38.2891 25.1016 39.1172C26.0547 39.9453 27.2344 40.5469 28.6406 40.9219V43.4531ZM30 48.75C27.4375 48.75 25.0156 48.2578 22.7344 47.2734C20.4531 46.2891 18.4609 44.9453 16.7578 43.2422C15.0547 41.5391 13.7109 39.5469 12.7266 37.2656C11.7422 34.9844 11.25 32.5625 11.25 30C11.25 27.4063 11.7422 24.9688 12.7266 22.6875C13.7109 20.4063 15.0547 18.4219 16.7578 16.7344C18.4609 15.0469 20.4531 13.7109 22.7344 12.7266C25.0156 11.7422 27.4375 11.25 30 11.25C32.5937 11.25 35.0312 11.7422 37.3125 12.7266C39.5937 13.7109 41.5781 15.0469 43.2656 16.7344C44.9531 18.4219 46.2891 20.4063 47.2734 22.6875C48.2578 24.9688 48.75 27.4063 48.75 30C48.75 32.5625 48.2578 34.9844 47.2734 37.2656C46.2891 39.5469 44.9531 41.5391 43.2656 43.2422C41.5781 44.9453 39.5937 46.2891 37.3125 47.2734C35.0312 48.2578 32.5937 48.75 30 48.75ZM30 45.9375C34.4375 45.9375 38.2031 44.3828 41.2969 41.2734C44.3906 38.1641 45.9375 34.4062 45.9375 30C45.9375 25.5625 44.3906 21.7969 41.2969 18.7031C38.2031 15.6094 34.4375 14.0625 30 14.0625C25.5938 14.0625 21.8359 15.6094 18.7266 18.7031C15.6172 21.7969 14.0625 25.5625 14.0625 30C14.0625 34.4062 15.6172 38.1641 18.7266 41.2734C21.8359 44.3828 25.5938 45.9375 30 45.9375Z" fill="#ADACE4"/>
</svg>
