<svg width="60" height="60" viewBox="0 0 60 60" fill="none" xmlns="http://www.w3.org/2000/svg">
<rect x="2.5" y="2.5" width="55" height="55" rx="2.5" fill="white" stroke="#ADACE4" stroke-width="5"/>
<path d="M24.0938 34.5469C23.375 34.5469 22.7734 34.3047 22.2891 33.8203C21.8047 33.3359 21.5625 32.7344 21.5625 32.0156C21.5625 31.2969 21.8047 30.6953 22.2891 30.2109C22.7734 29.7266 23.375 29.4844 24.0938 29.4844C24.8125 29.4844 25.4141 29.7266 25.8984 30.2109C26.3828 30.6953 26.625 31.2969 26.625 32.0156C26.625 32.7344 26.3828 33.3359 25.8984 33.8203C25.4141 34.3047 24.8125 34.5469 24.0938 34.5469ZM35.9531 34.5469C35.2344 34.5469 34.6328 34.3047 34.1484 33.8203C33.6641 33.3359 33.4219 32.7344 33.4219 32.0156C33.4219 31.2969 33.6641 30.6953 34.1484 30.2109C34.6328 29.7266 35.2344 29.4844 35.9531 29.4844C36.6719 29.4844 37.2734 29.7266 37.7578 30.2109C38.2422 30.6953 38.4844 31.2969 38.4844 32.0156C38.4844 32.7344 38.2422 33.3359 37.7578 33.8203C37.2734 34.3047 36.6719 34.5469 35.9531 34.5469ZM30 45.9375C34.4375 45.9375 38.2031 44.3906 41.2969 41.2969C44.3906 38.2031 45.9375 34.4375 45.9375 30C45.9375 29.1875 45.875 28.3906 45.75 27.6094C45.625 26.8281 45.4687 26.1094 45.2812 25.4531C44.6562 25.6094 43.9766 25.7187 43.2422 25.7812C42.5078 25.8438 41.75 25.875 40.9688 25.875C37.9375 25.875 35.0703 25.25 32.3672 24C29.6641 22.75 27.3594 20.9687 25.4531 18.6562C24.3906 21.1875 22.8672 23.3984 20.8828 25.2891C18.8984 27.1797 16.625 28.6406 14.0625 29.6719V30C14.0625 34.4375 15.6094 38.2031 18.7031 41.2969C21.7969 44.3906 25.5625 45.9375 30 45.9375ZM30 48.75C27.4063 48.75 24.9688 48.2578 22.6875 47.2734C20.4063 46.2891 18.4219 44.9531 16.7344 43.2656C15.0469 41.5781 13.7109 39.5937 12.7266 37.3125C11.7422 35.0312 11.25 32.5937 11.25 30C11.25 27.4063 11.7422 24.9688 12.7266 22.6875C13.7109 20.4063 15.0469 18.4219 16.7344 16.7344C18.4219 15.0469 20.4063 13.7109 22.6875 12.7266C24.9688 11.7422 27.4063 11.25 30 11.25C32.5937 11.25 35.0312 11.7422 37.3125 12.7266C39.5937 13.7109 41.5781 15.0469 43.2656 16.7344C44.9531 18.4219 46.2891 20.4063 47.2734 22.6875C48.2578 24.9688 48.75 27.4063 48.75 30C48.75 32.5937 48.2578 35.0312 47.2734 37.3125C46.2891 39.5937 44.9531 41.5781 43.2656 43.2656C41.5781 44.9531 39.5937 46.2891 37.3125 47.2734C35.0312 48.2578 32.5937 48.75 30 48.75ZM25.6875 14.6719C28.4375 17.8906 30.9766 20.0937 33.3047 21.2812C35.6328 22.4687 38.1875 23.0625 40.9688 23.0625C41.7188 23.0625 42.3125 23.0469 42.75 23.0156C43.1875 22.9844 43.6719 22.8906 44.2031 22.7344C42.7969 20.2031 40.8828 18.125 38.4609 16.5C36.0391 14.875 33.2188 14.0625 30 14.0625C29.1563 14.0625 28.3594 14.125 27.6094 14.25C26.8594 14.375 26.2187 14.5156 25.6875 14.6719ZM14.4844 26.3438C15.9844 25.7813 17.6953 24.5078 19.6172 22.5234C21.5391 20.5391 22.9062 18.1406 23.7187 15.3281C21 16.5469 18.9453 18.1016 17.5547 19.9922C16.1641 21.8828 15.1406 24 14.4844 26.3438Z" fill="#ADACE4"/>
</svg>
