<svg width="60" height="60" viewBox="0 0 60 60" fill="none" xmlns="http://www.w3.org/2000/svg">
<rect x="2.5" y="2.5" width="55" height="55" rx="2.5" fill="white" stroke="#ADACE4" stroke-width="5"/>
<path d="M23.875 11.6875V8.875H35.125V11.6875H23.875ZM28.0938 32.6406H30.9062V21.8594H28.0938V32.6406ZM29.5 48.2031C27.1875 48.2031 25.0078 47.7578 22.9609 46.8672C20.9141 45.9766 19.125 44.7656 17.5938 43.2344C16.0625 41.7031 14.8516 39.9141 13.9609 37.8672C13.0703 35.8203 12.625 33.6406 12.625 31.3281C12.625 29.0156 13.0703 26.8359 13.9609 24.7891C14.8516 22.7422 16.0625 20.9531 17.5938 19.4219C19.125 17.8906 20.9141 16.6797 22.9609 15.7891C25.0078 14.8984 27.1875 14.4531 29.5 14.4531C31.5938 14.4531 33.5625 14.8047 35.4062 15.5078C37.25 16.2109 38.8906 17.1875 40.3281 18.4375L42.7187 16.0469L44.6875 18.0156L42.2969 20.4063C43.4219 21.6563 44.3828 23.1719 45.1797 24.9531C45.9766 26.7344 46.375 28.8594 46.375 31.3281C46.375 33.6406 45.9297 35.8203 45.0391 37.8672C44.1484 39.9141 42.9375 41.7031 41.4063 43.2344C39.875 44.7656 38.0859 45.9766 36.0391 46.8672C33.9922 47.7578 31.8125 48.2031 29.5 48.2031ZM29.5 45.3906C33.4062 45.3906 36.7266 44.0234 39.4609 41.2891C42.1953 38.5547 43.5625 35.2344 43.5625 31.3281C43.5625 27.4219 42.1953 24.1016 39.4609 21.3672C36.7266 18.6328 33.4062 17.2656 29.5 17.2656C25.5938 17.2656 22.2734 18.6328 19.5391 21.3672C16.8047 24.1016 15.4375 27.4219 15.4375 31.3281C15.4375 35.2344 16.8047 38.5547 19.5391 41.2891C22.2734 44.0234 25.5938 45.3906 29.5 45.3906Z" fill="#ADACE4"/>
</svg>
