<svg width="25" height="25" viewBox="0 0 25 25" fill="none" xmlns="http://www.w3.org/2000/svg">
<path d="M5.72917 14.5833C5.72917 15.6771 5.97656 16.7057 6.47136 17.6693C6.96615 18.6328 7.65625 19.4358 8.54167 20.0781C8.47222 19.8698 8.42014 19.6571 8.38542 19.4401C8.3507 19.2231 8.33333 19.0104 8.33333 18.8021C8.33333 18.2465 8.4375 17.7257 8.64583 17.2396C8.85417 16.7535 9.15799 16.3108 9.55729 15.9115L12.5 13.0208L15.4427 15.9115C15.842 16.3108 16.1458 16.7535 16.3542 17.2396C16.5625 17.7257 16.6667 18.2465 16.6667 18.8021C16.6667 19.0104 16.6493 19.2231 16.6146 19.4401C16.5799 19.6571 16.5278 19.8698 16.4583 20.0781C17.3438 19.4358 18.0339 18.6328 18.5286 17.6693C19.0234 16.7057 19.2708 15.6771 19.2708 14.5833C19.2708 13.6458 19.0712 12.73 18.6719 11.8359C18.2726 10.9418 17.6997 10.1215 16.9531 9.375C16.5885 9.63542 16.2066 9.83941 15.8073 9.98698C15.408 10.1345 15.0087 10.2083 14.6094 10.2083C13.5503 10.2083 12.6736 9.84809 11.9792 9.1276C11.2847 8.40712 10.9375 7.5 10.9375 6.40625V5.88542C10.1389 6.45833 9.4184 7.09201 8.77604 7.78646C8.13368 8.4809 7.58681 9.20573 7.13542 9.96094C6.68403 10.7161 6.33681 11.4887 6.09375 12.2786C5.8507 13.0686 5.72917 13.8368 5.72917 14.5833ZM12.5 15.2083L10.651 17.0312C10.408 17.2743 10.2214 17.5434 10.0911 17.8385C9.96094 18.1337 9.89583 18.4549 9.89583 18.8021C9.89583 19.5139 10.1476 20.1172 10.651 20.612C11.1545 21.1068 11.7708 21.3542 12.5 21.3542C13.2292 21.3542 13.8455 21.1068 14.349 20.612C14.8524 20.1172 15.1042 19.5139 15.1042 18.8021C15.1042 18.4549 15.0391 18.1337 14.9089 17.8385C14.7786 17.5434 14.592 17.2743 14.349 17.0312L12.5 15.2083ZM12.5 3.125V6.5625C12.5 7.15278 12.704 7.64757 13.112 8.04687C13.52 8.44618 14.0191 8.64583 14.6094 8.64583C14.9219 8.64583 15.2127 8.58073 15.4818 8.45052C15.7509 8.32031 15.9896 8.125 16.1979 7.86458L16.6667 7.29167C17.9514 8.02083 18.967 9.03646 19.7135 10.3385C20.4601 11.6406 20.8333 13.0556 20.8333 14.5833C20.8333 16.9097 20.026 18.8802 18.4115 20.4948C16.7969 22.1094 14.8264 22.9167 12.5 22.9167C10.1736 22.9167 8.20313 22.1094 6.58854 20.4948C4.97396 18.8802 4.16667 16.9097 4.16667 14.5833C4.16667 12.3611 4.9132 10.2214 6.40625 8.16406C7.89931 6.10677 9.93056 4.42708 12.5 3.125Z" fill="#D87869"/>
</svg>
